<?xml version="1.0"?>
<svg xmlns="http://www.w3.org/2000/svg" xmlns:xlink="http://www.w3.org/1999/xlink" version="1.1" id="Layer_1" x="0px" y="0px" viewBox="0 0 467.235 467.235" style="enable-background:new 0 0 467.235 467.235;" xml:space="preserve" width="512px" height="512px" class=""><g><path style="fill:#FFFFFF;" d="M414.323,399.159c0,8.312-6.746,15.059-15.059,15.059h-75.294V52.806h75.294  c8.312,0,15.059,6.746,15.059,15.059V399.159z" data-original="#FFFFFF" class=""/><rect x="323.971" y="105.617" style="fill:#FFF4EA" width="60.235" height="90.353" data-original="#C5EB98" class="active-path" data-old_color="#C5EB98"/><path style="fill:#FB8F2D" d="M384.206,195.97h-60.235v-81.694c2.409-0.753,4.894-1.129,7.529-1.129  c14.532,0,26.353,11.821,26.353,26.353c0,8.952-4.442,16.791-11.294,21.609v4.977C363.801,167.659,384.206,173.984,384.206,195.97z" data-original="#56C435" class="" data-old_color="#56C435"/><path style="fill:#FF7900" d="M323.971,30.353v406.739c0,9.193-4.141,17.762-11.294,23.499c-7.07,5.722-16.414,7.898-25.374,5.941  L76.479,419.706c-13.779-3.102-23.567-15.292-23.567-29.455V77.178c0-14.148,9.788-26.353,23.567-29.425l210.824-46.84  c8.96-1.958,18.304,0.218,25.374,5.941C319.829,12.584,323.971,21.16,323.971,30.353z" data-original="#003B15" class="" data-old_color="#003B15"/><g>
	<rect x="323.971" y="225.982" style="fill:#FFF4EA" width="60.235" height="7.529" data-original="#C5EB98" class="active-path" data-old_color="#C5EB98"/>
	<rect x="323.971" y="256.1" style="fill:#FFF4EA" width="60.235" height="7.529" data-original="#C5EB98" class="active-path" data-old_color="#C5EB98"/>
	<rect x="323.971" y="286.217" style="fill:#FFF4EA" width="37.647" height="7.529" data-original="#C5EB98" class="active-path" data-old_color="#C5EB98"/>
	<rect x="323.971" y="316.44" style="fill:#FFF4EA" width="37.647" height="7.529" data-original="#C5EB98" class="active-path" data-old_color="#C5EB98"/>
</g><path style="fill:#FB8F2D" d="M312.985,6.967c-0.12-0.098-0.188-0.218-0.309-0.309c-7.07-5.73-16.414-7.913-25.374-5.956  L76.479,47.543C62.7,50.63,52.912,62.82,52.912,76.983V267.04L312.985,6.967z" data-original="#006E31" class="" data-old_color="#006E31"/><g>
	<path style="fill:#FFFFFF;" d="M141.036,185.444c-14.78,0.926-22.167,1.4-36.954,2.342c0.678-20.676,7.138-40.147,17.566-57.321   c12.958-2.071,19.426-3.117,32.384-5.18C146.224,144.235,141.571,164.414,141.036,185.444z" data-original="#FFFFFF" class=""/>
	<path style="fill:#FFFFFF;" d="M154.032,252.44c-12.958-0.617-19.426-0.926-32.384-1.544c-10.428-16-16.888-34.733-17.566-55.341   c14.788-0.738,22.174-1.092,36.954-1.822C141.571,214.703,146.224,234.355,154.032,252.44z" data-original="#FFFFFF" class=""/>
	<path style="fill:#FFFFFF;" d="M179.007,293.069c-19.32-3.893-37.564-16.309-51.366-33.777c12.198,0.753,18.296,1.114,30.494,1.875   C163.858,272.619,170.928,283.364,179.007,293.069z" data-original="#FFFFFF" class=""/>
	<path style="fill:#FFFFFF;" d="M158.135,116.075c-12.198,2.131-18.296,3.192-30.494,5.316   c12.258-16.904,30.163-32.828,51.298-39.462C170.928,92.44,163.858,103.983,158.135,116.075z" data-original="#FFFFFF" class=""/>
	<path style="fill:#FFFFFF;" d="M181.363,90.332c0,8.681,0,13.018,0,21.7c-6.031,1.062-9.05,1.581-15.081,2.635   C170.657,106.114,175.709,97.982,181.363,90.332z" data-original="#FFFFFF" class=""/>
	<path style="fill:#FFFFFF;" d="M181.363,120.887c0,24.802,0,37.195,0,61.997c-13.432,0.843-20.156,1.272-33.589,2.123   c0.535-21.512,5.587-42.037,13.997-60.988C169.61,122.769,173.525,122.144,181.363,120.887z" data-original="#FFFFFF" class=""/>
	<path style="fill:#FFFFFF;" d="M181.363,191.738c0,24.809,0,37.203,0,62.005c-7.838-0.376-11.753-0.55-19.592-0.934   c-8.41-18.003-13.463-37.956-13.997-59.415C161.207,192.732,167.923,192.401,181.363,191.738z" data-original="#FFFFFF" class=""/>
	<path style="fill:#FFFFFF;" d="M166.282,261.679c6.031,0.369,9.05,0.557,15.081,0.926c0,8.674,0,13.018,0,21.692   C175.709,277.295,170.657,269.72,166.282,261.679z" data-original="#FFFFFF" class=""/>
	<path style="fill:#FFFFFF;" d="M203.176,108.237c-6.039,1.054-9.05,1.574-15.081,2.628c0-8.772,0-13.154,0-21.933   C193.749,94.293,198.794,100.753,203.176,108.237z" data-original="#FFFFFF" class=""/>
	<path style="fill:#FFFFFF;" d="M188.095,263.012c6.031,0.369,9.043,0.542,15.081,0.926c-4.382,7.974-9.427,14.999-15.081,21   C188.095,276.158,188.095,271.776,188.095,263.012z" data-original="#FFFFFF" class=""/>
	<path style="fill:#FFFFFF;" d="M221.683,189.751c-0.535,24.132-5.587,46.743-13.997,65.25c-7.838-0.376-11.761-0.557-19.592-0.941   c0-25.058,0-37.587,0-62.652C201.527,190.752,208.251,190.413,221.683,189.751z" data-original="#FFFFFF" class=""/>
	<path style="fill:#FFFFFF;" d="M221.683,180.339c-13.432,0.851-20.156,1.272-33.589,2.116c0-25.058,0-37.587,0-62.645   c7.831-1.257,11.753-1.882,19.592-3.132C216.097,134.221,221.149,156.267,221.683,180.339z" data-original="#FFFFFF" class=""/>
	<path style="fill:#FFFFFF;" d="M190.451,79.279c19.32-2.492,37.564,4.759,51.366,22.227c-12.198,2.123-18.304,3.185-30.502,5.308   C205.593,95.761,198.531,86.47,190.451,79.279z" data-original="#FFFFFF" class=""/>
	<path style="fill:#FFFFFF;" d="M211.315,264.442c12.198,0.753,18.304,1.122,30.502,1.875   c-13.124,18.093-31.232,28.333-51.298,27.934C198.531,286.217,205.593,276.143,211.315,264.442z" data-original="#FFFFFF" class=""/>
	<path style="fill:#FFFFFF;" d="M265.377,187.59c-0.678,26.586-7.138,50.936-17.574,69.323c-12.951-0.617-19.426-0.926-32.376-1.544   c7.808-19.132,12.454-41.864,12.996-65.95C243.187,188.689,250.589,188.32,265.377,187.59z" data-original="#FFFFFF" class=""/>
	<path style="fill:#FFFFFF;" d="M228.422,179.91c-0.535-24.019-5.18-46.238-12.996-64.482c12.951-2.071,19.426-3.117,32.376-5.18   c10.436,17.205,16.896,40.824,17.574,67.336C250.589,178.517,243.187,178.976,228.422,179.91z" data-original="#FFFFFF" class=""/>
	<path style="fill:#FFFFFF;" d="M90.559,331.944c4.156,0.309,6.234,0.474,10.391,0.783c6.355,0.474,9.51,6.46,9.51,12.205   c0,5.805-3.192,11.151-9.472,10.398c-1.544-0.181-2.312-0.279-3.855-0.474c0,3.704,0,5.557,0,9.261   c-2.635-0.369-3.938-0.557-6.573-0.926C90.559,350.692,90.559,344.442,90.559,331.944z M100.949,348.147   c3.96,0.474,3.96-7.575,0-7.898c-1.521-0.151-2.289-0.203-3.817-0.354c0,3.147,0,4.706,0,7.838   C98.66,347.913,99.428,347.981,100.949,348.147z" data-original="#FFFFFF" class=""/>
	<path style="fill:#FFFFFF;" d="M133.958,369.32c-2.816-0.414-4.232-0.602-7.048-1.001c-0.678-2.809-1.016-4.201-1.694-6.98   c-2.778-0.354-4.164-0.52-6.942-0.873c-0.64,2.575-0.964,3.855-1.611,6.415c-2.824-0.414-4.232-0.602-7.055-1.001   c3.629-12.484,5.444-18.869,9.073-31.842c2.387,0.173,3.592,0.271,5.978,0.459C128.379,348.177,130.246,355.149,133.958,369.32z    M123.643,353.643c-0.715-3.998-1.084-5.986-1.792-9.946c-0.075-0.008-0.113-0.008-0.181-0.023   c-0.768,3.825-1.144,5.737-1.912,9.532C121.309,353.38,122.092,353.47,123.643,353.643z" data-original="#FFFFFF" class=""/>
	<path style="fill:#FFFFFF;" d="M139.063,359.14c2.613,4.495,8.358,5.451,8.523,1.717c0.083-1.958-2.357-3.358-4.442-4.006   c-4.149-1.303-8.004-5.271-8.004-11.791c0-6.716,4.623-9.886,9.397-9.547c3.162,0.226,6.204,1.634,8.892,6.31   c-1.724,1.656-2.583,2.47-4.292,4.104c-2.718-4.186-7.529-4.254-7.492-0.407c0.008,1.611,1.453,2.824,3.448,3.569   c4.503,1.672,9.254,4.284,8.96,12.966c-0.226,6.829-5.504,9.841-10.285,9.163c-3.117-0.452-6.423-3.012-8.847-7.439   C136.579,361.926,137.414,361,139.063,359.14z" data-original="#FFFFFF" class=""/>
	<path style="fill:#FFFFFF;" d="M160.665,361.737c2.613,4.676,8.358,5.617,8.516,1.747c0.09-2.04-2.349-3.501-4.442-4.179   c-4.141-1.325-8.004-5.451-8.004-12.235c0-7.002,4.623-10.323,9.397-9.969c3.162,0.218,6.204,1.679,8.885,6.528   c-1.717,1.724-2.575,2.59-4.292,4.292c-2.711-4.337-7.522-4.427-7.484-0.407c0.008,1.687,1.453,2.952,3.448,3.704   c4.503,1.702,9.246,4.427,8.952,13.44c-0.218,7.108-5.496,10.255-10.278,9.577c-3.117-0.444-6.423-3.102-8.847-7.688   C158.173,364.644,159.001,363.688,160.665,361.737z" data-original="#FFFFFF" class=""/>
	<path style="fill:#FFFFFF;" d="M179.361,338.6c4.156,0.309,6.227,0.474,10.391,0.783c6.355,0.474,9.51,7.499,9.51,14.276   c0,6.837-3.192,13.252-9.472,12.484c-1.544-0.181-2.319-0.279-3.855-0.474c0,4.397,0,6.588,0,10.985   c-2.635-0.369-3.945-0.557-6.573-0.926C179.361,360.879,179.361,353.455,179.361,338.6z M189.751,357.664   c3.96,0.467,3.96-9.043,0-9.352c-1.528-0.151-2.296-0.211-3.817-0.354c0,3.72,0,5.572,0,9.284   C187.455,357.408,188.223,357.483,189.751,357.664z" data-original="#FFFFFF" class=""/>
	<path style="fill:#FFFFFF;" d="M202.31,353.041c0-8.9,5.361-12.868,10.76-12.469s10.797,5.384,10.797,14.562   c0,5.481,0,8.222,0,13.688c0,9.186-5.361,13.003-10.76,12.235c-5.399-0.783-10.797-5.956-10.797-14.81   C202.31,360.969,202.31,358.327,202.31,353.041z M208.883,367.046c0,2.869,2.123,4.518,4.224,4.781   c2.101,0.264,4.186-0.926,4.186-3.78c0-5.421,0-8.132,0-13.545c0-3.087-2.161-4.676-4.292-4.864   c-2.048-0.188-4.111,1.175-4.111,4.043C208.883,359.019,208.883,361.7,208.883,367.046z" data-original="#FFFFFF" class=""/>
	<path style="fill:#FFFFFF;" d="M236.05,370.743c-0.474-0.053-0.708-0.083-1.175-0.143c0,5.18,0,7.778,0,12.973   c-2.658-0.369-3.983-0.557-6.641-0.941c0-16.136,0-24.222,0-40.35c4.156,0.309,6.227,0.474,10.391,0.776   c5.353,0.414,9.577,4.728,9.653,14.441c0.06,7.665-1.958,11.859-5.12,13.064c2.839,6.016,4.254,9.043,7.085,15.202   c-3.283-0.467-4.909-0.693-8.184-1.16C239.664,379.002,238.459,376.232,236.05,370.743z M238.738,362.129   c4.149,0.444,4.149-9.013,0-9.397c-1.544-0.143-2.319-0.203-3.863-0.354c0,3.735,0,5.602,0,9.336   C236.419,361.88,237.194,361.971,238.738,362.129z" data-original="#FFFFFF" class=""/>
	<path style="fill:#FFFFFF;" d="M264.36,355.187c0,13.018,0,19.539,0,32.55c-2.658-0.376-3.976-0.565-6.641-0.941   c0-12.89,0-19.328,0-32.211c-2.763-0.248-4.149-0.384-6.904-0.632c0-4.013,0-6.031,0-10.044c8.177,0.602,12.273,0.911,20.45,1.528   c0,4.149,0,6.219,0,10.368C268.501,355.556,267.123,355.443,264.36,355.187z" data-original="#FFFFFF" class=""/>
</g></g> </svg>
